HIERARCHY
ROOT hip
{
  OFFSET 0 0 0
  CHANNELS 6 Xposition Yposition Zposition Zrotation Yrotation Xrotation
  JOINT abdomen
  {
    OFFSET 0 20.6881 -0.73152
    CHANNELS 3 Zrotation Xrotation Yrotation
    JOINT chest
    {
      OFFSET 0 11.7043 -0.48768
      CHANNELS 3 Zrotation Xrotation Yrotation
      JOINT neck
      {
        OFFSET 0 22.1894 -2.19456
        CHANNELS 3 Zrotation Xrotation Yrotation
        JOINT head
        {
          OFFSET -0.24384 7.07133 1.2192
          CHANNELS 3 Zrotation Xrotation Yrotation
          JOINT leftEye
          {
            OFFSET 4.14528 8.04674 8.04672
            CHANNELS 3 Zrotation Xrotation Yrotation
            End Site
            {
              OFFSET 1 0 0
            }
          }
          JOINT rightEye
          {
            OFFSET -3.6576 8.04674 8.04672
            CHANNELS 3 Zrotation Xrotation Yrotation
            End Site
            {
              OFFSET 1 0 0
            }
          }
        }
      }
      JOINT rCollar
      {
        OFFSET -2.68224 19.2634 -4.8768
        CHANNELS 3 Zrotation Xrotation Yrotation
        JOINT rShldr
        {
          OFFSET -8.77824 -1.95073 1.46304
          CHANNELS 3 Zrotation Xrotation Yrotation
          JOINT rForeArm
          {
            OFFSET -28.1742 -1.7115 0.48768
            CHANNELS 3 Zrotation Xrotation Yrotation
            JOINT rHand
            {
              OFFSET -22.5879 0.773209 7.07136
              CHANNELS 3 Zrotation Xrotation Yrotation
              JOINT rThumb1
              {
                OFFSET -1.2192 -0.487915 3.41376
                CHANNELS 3 Zrotation Xrotation Yrotation
                JOINT rThumb2
                {
                  OFFSET -3.37035 -0.52449 3.41376
                  CHANNELS 3 Zrotation Xrotation Yrotation
                  End Site
                  {
                    OFFSET -1.78271 -1.18214 1.43049
                  }
                }
              }
              JOINT rIndex1
              {
                OFFSET -7.75947 0.938293 5.60832
                CHANNELS 3 Zrotation Xrotation Yrotation
                JOINT rIndex2
                {
                  OFFSET -2.54057 -0.884171 1.56538
                  CHANNELS 3 Zrotation Xrotation Yrotation
                  End Site
                  {
                    OFFSET -1.62519 -0.234802 1.16502
                  }
                }
              }
              JOINT rMid1
              {
                OFFSET -8.24714 1.18213 3.41376
                CHANNELS 3 Zrotation Xrotation Yrotation
                JOINT rMid2
                {
                  OFFSET -3.10165 -0.590103 1.0647
                  CHANNELS 3 Zrotation Xrotation Yrotation
                  End Site
                  {
                    OFFSET -2.48547 -0.328903 0.83742
                  }
                }
              }
              JOINT rRing1
              {
                OFFSET -8.82822 0.546677 1.51678
                CHANNELS 3 Zrotation Xrotation Yrotation
                JOINT rRing2
                {
                  OFFSET -2.60934 -0.819778 -0.0198488
                  CHANNELS 3 Zrotation Xrotation Yrotation
                  End Site
                  {
                    OFFSET -2.33842 -0.294052 0.168128
                  }
                }
              }
              JOINT rPinky1
              {
                OFFSET -8.27202 -0.0477905 -0.4584
                CHANNELS 3 Zrotation Xrotation Yrotation
                JOINT rPinky2
                {
                  OFFSET -1.82734 -0.647385 -0.700984
                  CHANNELS 3 Zrotation Xrotation Yrotation
                  End Site
                  {
                    OFFSET -1.69225 -0.51767 -0.607171
                  }
                }
              }
            }
          }
        }
      }
      JOINT lCollar
      {
        OFFSET 2.68224 19.2634 -4.8768
        CHANNELS 3 Zrotation Xrotation Yrotation
        JOINT lShldr
        {
          OFFSET 8.77824 -1.95073 1.46304
          CHANNELS 3 Zrotation Xrotation Yrotation
          JOINT lForeArm
          {
            OFFSET 28.1742 -1.7115 0.48768
            CHANNELS 3 Zrotation Xrotation Yrotation
            JOINT lHand
            {
              OFFSET 22.5879 0.773209 7.07136
              CHANNELS 3 Zrotation Xrotation Yrotation
              JOINT lThumb1
              {
                OFFSET 1.2192 -0.487915 3.41376
                CHANNELS 3 Zrotation Xrotation Yrotation
                JOINT lThumb2
                {
                  OFFSET 3.37035 -0.52449 3.41376
                  CHANNELS 3 Zrotation Xrotation Yrotation
                  End Site
                  {
                    OFFSET 1.78271 -1.18214 1.43049
                  }
                }
              }
              JOINT lIndex1
              {
                OFFSET 7.75947 0.938293 5.60832
                CHANNELS 3 Zrotation Xrotation Yrotation
                JOINT lIndex2
                {
                  OFFSET 2.54057 -0.884171 1.56538
                  CHANNELS 3 Zrotation Xrotation Yrotation
                  End Site
                  {
                    OFFSET 1.62519 -0.234802 1.16502
                  }
                }
              }
              JOINT lMid1
              {
                OFFSET 8.24714 1.18213 3.41376
                CHANNELS 3 Zrotation Xrotation Yrotation
                JOINT lMid2
                {
                  OFFSET 3.10165 -0.590103 1.0647
                  CHANNELS 3 Zrotation Xrotation Yrotation
                  End Site
                  {
                    OFFSET 2.48547 -0.328903 0.83742
                  }
                }
              }
              JOINT lRing1
              {
                OFFSET 8.82822 0.546677 1.51678
                CHANNELS 3 Zrotation Xrotation Yrotation
                JOINT lRing2
                {
                  OFFSET 2.60934 -0.819778 -0.0198488
                  CHANNELS 3 Zrotation Xrotation Yrotation
                  End Site
                  {
                    OFFSET 2.33842 -0.294052 0.168128
                  }
                }
              }
              JOINT lPinky1
              {
                OFFSET 8.27202 -0.0477905 -0.4584
                CHANNELS 3 Zrotation Xrotation Yrotation
                JOINT lPinky2
                {
                  OFFSET 1.82734 -0.647385 -0.700984
                  CHANNELS 3 Zrotation Xrotation Yrotation
                  End Site
                  {
                    OFFSET 1.69225 -0.51767 -0.607171
                  }
                }
              }
            }
          }
        }
      }
    }
  }
  JOINT rButtock
  {
    OFFSET -8.77824 4.35084 1.2192
    CHANNELS 3 Zrotation Xrotation Yrotation
    JOINT rThigh
    {
      OFFSET 0 -1.70687 -2.19456
      CHANNELS 3 Zrotation Xrotation Yrotation
      JOINT rShin
      {
        OFFSET 0 -36.8199 0.73152
        CHANNELS 3 Zrotation Xrotation Yrotation
        JOINT rFoot
        {
          OFFSET 0.73152 -45.1104 -5.12064
          CHANNELS 3 Zrotation Xrotation Yrotation
          End Site
          {
            OFFSET -1.1221 -3.69964 12.103
          }
        }
      }
    }
  }
  JOINT lButtock
  {
    OFFSET 8.77824 4.35084 1.2192
    CHANNELS 3 Zrotation Xrotation Yrotation
    JOINT lThigh
    {
      OFFSET 0 -1.70687 -2.19456
      CHANNELS 3 Zrotation Xrotation Yrotation
      JOINT lShin
      {
        OFFSET 0 -36.8199 0.73152
        CHANNELS 3 Zrotation Xrotation Yrotation
        JOINT lFoot
        {
          OFFSET -0.73152 -45.1104 -5.12064
          CHANNELS 3 Zrotation Xrotation Yrotation
          End Site
          {
            OFFSET 1.1221 -3.69964 12.103
          }
        }
      }
    }
  }
}
MOTION
Frames:	6
Frame Time:	0.00833333
4.3739 74.7377 -15.404 -356.283 -11.8425 -9.8798 3.42177 44.5753 -6.70997 4.38259 -4.80855 -1.36284 1.24327 11.625 6.2588 -20.1501 -6.52136 10.6591 -0.0 0.0 0.0 -0.0 0.0 0.0 -6.40583e-15 -1.17269e-13 -5.21662e-14 72.6741 -7.68628 -40.798 -19.9095 -12.8982 38.4718 -0.687226 -22.8897 -3.40108 1.25478e-09 1.98916e-09 -5.78928e-10 2.17729e-09 3.43678e-09 -9.80413e-10 1.25478e-09 1.98916e-09 -5.78934e-10 7.73091 5.47488 0.417314 1.25477e-09 1.98916e-09 -5.78924e-10 2.90554 0.965183 0.102902 1.25478e-09 1.98916e-09 -5.78927e-10 10.2786 0.731801 0.0259123 1.25477e-09 1.98917e-09 -5.78918e-10 2.22167 -0.733487 -0.20892 -6.41633e-15 -1.17246e-13 -5.24815e-14 -97.8965 23.7358 35.1222 18.2867 -11.0022 -34.6564 0.44225 -18.5818 2.70782 2.45832e-09 -8.78781e-10 -1.41072e-09 4.26846e-09 -1.53598e-09 -2.40882e-09 2.45832e-09 -8.78783e-10 -1.4107e-09 -7.73091 5.47488 -0.417314 2.45833e-09 -8.78788e-10 -1.41073e-09 -2.90554 0.965183 -0.102902 2.45832e-09 -8.78788e-10 -1.41072e-09 -10.2786 0.731801 -0.0259123 2.45834e-09 -8.78785e-10 -1.41073e-09 -2.22167 -0.733487 0.20892 -2.03217e-16 0.0 -3.88251e-19 -12.4211 -42.7901 -1.49684 -4.40588 78.6126 4.74676 -2.38978 -1.3732 -12.9269 2.03217e-16 0.0 3.88251e-19 1.56519 -33.5373 -3.79221 0.90735 58.4536 -1.58397 -0.432086 -8.13729 -3.21089
4.27735 74.383 -14.1327 -356.885 -11.9231 -10.3861 4.23857 45.5767 -6.7711 4.32757 -4.5875 -1.28684 0.820435 11.6372 6.53391 -20.5038 -7.04438 11.125 -0.0 0.0 0.0 -0.0 0.0 0.0 2.21139e-16 -1.12313e-13 -8.72789e-14 73.2651 -7.49161 -39.9742 -19.13 -11.9548 36.6093 -0.742529 -23.737 -3.54226 5.62388e-10 8.16262e-10 -3.64447e-10 9.76372e-10 1.41412e-09 -6.21967e-10 5.62395e-10 8.1626e-10 -3.64462e-10 7.73091 5.47488 0.417314 5.62382e-10 8.16259e-10 -3.64447e-10 2.90554 0.965183 0.102902 5.62393e-10 8.16261e-10 -3.64449e-10 10.2786 0.731801 0.0259123 5.6238e-10 8.16262e-10 -3.64441e-10 2.22167 -0.733487 -0.20892 1.76444e-16 -1.12313e-13 -8.76206e-14 -98.1068 23.3846 34.3159 17.9176 -10.6052 -33.8175 0.406674 -17.8614 2.59534 1.83452e-09 -6.87932e-10 -8.8013e-10 3.18382e-09 -1.20186e-09 -1.4985e-09 1.83451e-09 -6.87937e-10 -8.80118e-10 -7.73091 5.47488 -0.417314 1.83452e-09 -6.8794e-10 -8.80137e-10 -2.90554 0.965183 -0.102902 1.83452e-09 -6.8794e-10 -8.80136e-10 -10.2786 0.731801 -0.0259123 1.83453e-09 -6.87936e-10 -8.80146e-10 -2.22167 -0.733487 0.20892 -2.03217e-16 0.0 -3.88251e-19 -11.5391 -42.3936 -0.0990692 -3.33012 75.8228 3.70667 -2.49635 -2.16802 -12.8129 2.03217e-16 0.0 3.88251e-19 2.23488 -33.2361 -3.04135 1.0357 60.7397 -1.75913 -0.268663 -8.62351 -2.51039
4.14021 74.1448 -12.9038 -357.624 -11.9486 -10.7762 5.20192 46.56 -6.93852 4.32033 -4.35758 -1.21787 0.411003 11.5848 6.79172 -20.8125 -7.53251 11.5659 -0.0 0.0 0.0 -0.0 0.0 0.0 2.77194e-15 -1.01294e-13 -1.12061e-13 73.8957 -7.2992 -38.996 -18.3161 -11.0303 34.7246 -0.807111 -24.6547 -3.69797 -1.0248e-10 -2.50669e-10 -1.3272e-10 -1.77378e-10 -4.27908e-10 -2.32704e-10 -1.02471e-10 -2.50668e-10 -1.32743e-10 7.73091 5.47488 0.417314 -1.02483e-10 -2.50673e-10 -1.32724e-10 2.90554 0.965183 0.102902 -1.02476e-10 -2.50673e-10 -1.32724e-10 10.2786 0.731801 0.0259123 -1.02491e-10 -2.50672e-10 -1.32718e-10 2.22167 -0.733487 -0.20892 2.69495e-15 -1.01317e-13 -1.1242e-13 -98.1514 22.9545 33.3499 17.5568 -10.2232 -33.0193 0.373974 -17.1499 2.48541 1.13872e-09 -4.95279e-10 -3.14294e-10 1.974e-09 -8.64107e-10 -5.28363e-10 1.13871e-09 -4.95286e-10 -3.14286e-10 -7.73091 5.47488 -0.417314 1.13872e-09 -4.95286e-10 -3.14299e-10 -2.90554 0.965183 -0.102902 1.13871e-09 -4.95286e-10 -3.143e-10 -10.2786 0.731801 -0.0259123 1.13873e-09 -4.95282e-10 -3.14308e-10 -2.22167 -0.733487 0.20892 -2.03217e-16 0.0 -3.88251e-19 -10.536 -41.8264 1.49441 -2.58644 72.923 2.99335 -2.45261 -2.6875 -12.2398 2.03217e-16 0.0 3.88251e-19 2.97075 -33.178 -2.22814 1.20293 63.1586 -1.96041 -0.103906 -8.78908 -1.87707
3.89929 73.9699 -11.6774 -358.559 -11.9616 -11.0938 6.24165 47.4283 -7.17525 4.35183 -4.1885 -1.14924 0.199502 11.4462 7.00786 -21.1136 -7.91119 11.9345 -0.0 0.0 0.0 -0.0 0.0 0.0 -9.49406e-15 -9.53984e-14 -1.0476e-13 74.7156 -7.0915 -37.8664 -17.4603 -10.118 32.8204 -0.866235 -25.4487 -3.83482 -2.71976e-10 -3.99996e-10 -2.88635e-11 -4.7281e-10 -6.90836e-10 -5.48185e-11 -2.71967e-10 -3.99994e-10 -2.88922e-11 7.73091 5.47488 0.417314 -2.71977e-10 -3.99999e-10 -2.88699e-11 2.90554 0.965183 0.102902 -2.71971e-10 -4e-10 -2.88691e-11 10.2786 0.731801 0.0259123 -2.71986e-10 -3.99999e-10 -2.88635e-11 2.22167 -0.733487 -0.20892 -9.58969e-15 -9.54349e-14 -1.05107e-13 -97.9966 22.6308 32.3826 17.2585 -9.91108 -32.3771 0.348599 -16.5599 2.39509 7.91292e-10 -4.77195e-10 -3.00499e-11 1.36898e-09 -8.30163e-10 -4.15213e-11 7.91281e-10 -4.77202e-10 -3.00435e-11 -7.73091 5.47488 -0.417314 7.91292e-10 -4.77202e-10 -3.00531e-11 -2.90554 0.965183 -0.102902 7.91287e-10 -4.77201e-10 -3.00546e-11 -10.2786 0.731801 -0.0259123 7.91303e-10 -4.77197e-10 -3.00626e-11 -2.22167 -0.733487 0.20892 -2.03217e-16 0.0 -3.88251e-19 -9.6211 -41.2412 3.10022 -2.11022 70.3531 2.54387 -2.32947 -3.135 -11.303 2.03217e-16 0.0 3.88251e-19 3.65762 -33.6452 -1.63062 1.43007 65.7081 -2.20423 -0.0259961 -8.27669 -1.65985
3.64202 73.6919 -10.5512 -359.405 -11.5505 -11.2265 7.30195 48.1759 -7.43016 4.42808 -4.08372 -1.07242 0.296104 11.1248 7.17761 -21.4715 -8.10056 12.2259 -0.0 0.0 0.0 -0.0 0.0 0.0 -4.84522e-14 -9.88019e-14 -3.70143e-14 75.7621 -6.92969 -36.5121 -16.5327 -9.20338 30.7931 -0.926096 -26.2315 -3.97115 4.61796e-10 1.16612e-09 -1.32753e-10 7.96103e-10 1.99693e-09 -2.1816e-10 4.61802e-10 1.16612e-09 -1.32782e-10 7.73091 5.47488 0.417314 4.61796e-10 1.16612e-09 -1.3276e-10 2.90554 0.965183 0.102902 4.61802e-10 1.16612e-09 -1.32758e-10 10.2786 0.731801 0.0259123 4.61788e-10 1.16612e-09 -1.32753e-10 2.22167 -0.733487 -0.20892 -4.85453e-14 -9.88398e-14 -3.73005e-14 -97.5574 22.5089 31.344 17.0153 -9.66168 -31.8575 0.329628 -16.1079 2.3262 1.06312e-09 -8.32062e-10 -2.05519e-10 1.83829e-09 -1.44448e-09 -3.43268e-10 1.06311e-09 -8.32068e-10 -2.05512e-10 -7.73091 5.47488 -0.417314 1.06312e-09 -8.32067e-10 -2.05521e-10 -2.90554 0.965183 -0.102902 1.06312e-09 -8.32066e-10 -2.05523e-10 -10.2786 0.731801 -0.0259123 1.06313e-09 -8.32062e-10 -2.05531e-10 -2.22167 -0.733487 0.20892 -2.03217e-16 0.0 -3.88251e-19 -8.79264 -40.6639 4.95475 -1.77713 68.0 2.22842 -2.04475 -3.38367 -9.67861 2.03217e-16 0.0 3.88251e-19 4.24305 -34.7213 -1.32944 1.74527 68.447 -2.51144 -0.0655617 -7.05482 -2.03216
3.4847 73.3324 -9.56954 -359.975 -10.4658 -11.1476 8.43713 48.8471 -7.73952 4.55132 -4.01112 -0.993219 0.583598 10.6627 7.31346 -21.8532 -8.16157 12.4613 -0.0 0.0 0.0 -0.0 0.0 0.0 -1.0537e-13 -1.05141e-13 7.20532e-14 76.9544 -6.79651 -34.9556 -15.5454 -8.2981 28.6718 -0.991719 -27.0517 -4.11613 1.75494e-09 3.82101e-09 -3.53266e-10 3.03351e-09 6.55665e-09 -5.71804e-10 1.75494e-09 3.82101e-09 -3.53294e-10 7.73091 5.47488 0.417314 1.75494e-09 3.82101e-09 -3.53272e-10 2.90554 0.965183 0.102902 1.75494e-09 3.82101e-09 -3.53271e-10 10.2786 0.731801 0.0259123 1.75493e-09 3.82101e-09 -3.53265e-10 2.22167 -0.733487 -0.20892 -1.05447e-13 -1.05173e-13 7.18638e-14 -96.8729 22.472 30.1837 16.8112 -9.45791 -31.4187 0.31409 -15.7386 2.26998 1.67708e-09 -1.41537e-09 -6.4051e-10 2.901e-09 -2.4556e-09 -1.09046e-09 1.67708e-09 -1.41537e-09 -6.40499e-10 -7.73091 5.47488 -0.417314 1.67708e-09 -1.41537e-09 -6.40511e-10 -2.90554 0.965183 -0.102902 1.67708e-09 -1.41537e-09 -6.40513e-10 -10.2786 0.731801 -0.0259123 1.67709e-09 -1.41536e-09 -6.4052e-10 -2.22167 -0.733487 0.20892 -2.03217e-16 0.0 -3.88251e-19 -7.9844 -40.0024 7.04316 -1.52214 65.7072 1.98337 -1.6036 -3.37936 -7.43097 2.03217e-16 0.0 3.88251e-19 4.80511 -36.2555 -1.16956 2.17814 71.3563 -2.91673 -0.140065 -5.29358 -2.7788
